<svg width="314" height="119" viewBox="0 0 314 119" fill="none" xmlns="http://www.w3.org/2000/svg">
<path d="M179.742 42.6797C179.742 42.8203 179.766 43.0078 179.812 43.2422C179.859 43.4297 179.883 43.6406 179.883 43.875C179.883 44.8594 179.484 45.7266 178.688 46.4766C177.938 47.2266 177.094 47.6016 176.156 47.6016C175.406 47.6016 174.703 47.3672 174.047 46.8984C173.438 46.4297 172.992 45.7969 172.711 45C172.102 43.2188 171.516 41.3203 170.953 39.3047C170.391 37.2422 169.875 35.2266 169.406 33.2578C168.984 31.2891 168.586 29.4375 168.211 27.7031C167.836 25.9687 167.555 24.4922 167.367 23.2734C164.695 23.4141 161.648 23.5313 158.227 23.625C154.805 23.6719 151.125 23.6953 147.188 23.6953L144.867 110.531C148.711 110.672 152.414 110.953 155.977 111.375C157.008 111.469 157.805 111.867 158.367 112.57C158.977 113.227 159.281 114.023 159.281 114.961C159.281 116.133 158.883 117.047 158.086 117.703C157.336 118.406 156.539 118.758 155.695 118.758H155.273C151.477 118.289 147.727 117.961 144.023 117.773C140.32 117.633 136.617 117.562 132.914 117.562C129.164 117.562 125.484 117.633 121.875 117.773C118.266 117.961 114.656 118.289 111.047 118.758H110.625C109.594 118.758 108.703 118.359 107.953 117.562C107.25 116.766 106.898 115.898 106.898 114.961C106.898 114.023 107.203 113.227 107.812 112.57C108.469 111.867 109.266 111.469 110.203 111.375C113.812 110.953 117.352 110.672 120.82 110.531L122.438 23.2734C118.453 23.1328 114.703 22.9688 111.188 22.7812C107.719 22.5469 104.602 22.3125 101.836 22.0781C101.555 23.3438 101.203 24.8906 100.781 26.7188C100.406 28.5469 99.9609 30.4922 99.4453 32.5547C98.9766 34.6172 98.4844 36.7266 97.9688 38.8828C97.4531 40.9922 96.9141 42.9844 96.3516 44.8594C96.1172 45.6562 95.6719 46.3125 95.0156 46.8281C94.4062 47.3438 93.7031 47.6016 92.9062 47.6016C91.8281 47.6016 90.9375 47.2266 90.2344 46.4766C89.5312 45.6797 89.1797 44.8125 89.1797 43.875C89.1797 43.7344 89.1797 43.5703 89.1797 43.3828C89.1797 43.1484 89.2266 42.9609 89.3203 42.8203C90.0234 40.3359 90.7266 37.6172 91.4297 34.6641C92.1328 31.7109 92.7656 28.9453 93.3281 26.3672C93.9375 23.7891 94.4297 21.6328 94.8047 19.8984C95.1797 18.1641 95.3672 17.2734 95.3672 17.2266C95.6016 16.3359 96.0234 15.6328 96.6328 15.1172C97.2891 14.6016 98.0625 14.3438 98.9531 14.3438H99.5156C101.953 14.6719 104.906 14.9531 108.375 15.1875C111.891 15.4219 115.664 15.6328 119.695 15.8203C123.773 15.9609 127.992 16.0781 132.352 16.1719C136.711 16.2656 140.977 16.3125 145.148 16.3125C150.258 16.3125 154.969 16.2656 159.281 16.1719C163.594 16.0312 167.203 15.8437 170.109 15.6094H170.391C171.234 15.6094 172.008 15.9141 172.711 16.5234C173.414 17.0859 173.836 17.7891 173.977 18.6328C173.977 18.6797 174.047 19.0781 174.188 19.8281C174.328 20.5781 174.516 21.5859 174.75 22.8516C174.984 24.1172 175.266 25.5703 175.594 27.2109C175.969 28.8516 176.367 30.5625 176.789 32.3438C177.211 34.0781 177.656 35.8594 178.125 37.6875C178.641 39.4688 179.18 41.1328 179.742 42.6797Z" fill="white"/>
<path d="M208.719 38.6953C208.672 38.2969 208.637 37.8867 208.613 37.4648C208.59 37.043 208.578 36.6094 208.578 36.1641H207.277C206.34 36.1641 205.227 36.2344 203.938 36.375C202.672 36.5156 201.359 36.7383 200 37.043C198.641 37.3477 197.293 37.7578 195.957 38.2734C194.621 38.7656 193.426 39.375 192.371 40.1016C191.316 40.8047 190.461 41.6367 189.805 42.5977C189.172 43.5586 188.855 44.6602 188.855 45.9023C188.855 46.5586 189.008 47.1211 189.312 47.5898C189.641 48.0586 190.039 48.4453 190.508 48.75C191 49.0312 191.539 49.2422 192.125 49.3828C192.711 49.5 193.273 49.5586 193.812 49.5586C195.477 49.5586 197.047 49.2422 198.523 48.6094C200.023 47.9531 201.406 47.1094 202.672 46.0781C203.938 45.0234 205.074 43.8516 206.082 42.5625C207.09 41.2734 207.969 39.9844 208.719 38.6953ZM225.559 50.8594H225.418C225.02 50.8125 224.609 50.7891 224.188 50.7891C223.766 50.7891 223.355 50.7891 222.957 50.7891C220.754 50.7891 218.633 50.9297 216.594 51.2109C214.578 51.4922 212.551 51.9258 210.512 52.5117C210.441 52.5117 210.371 52.5234 210.301 52.5469C210.23 52.5703 210.137 52.582 210.02 52.582C209.48 52.582 209.035 52.3711 208.684 51.9492C208.355 51.5508 208.191 51.1406 208.191 50.7188V50.4375C208.191 50.3906 208.25 49.9219 208.367 49.0312C208.484 48.1172 208.602 46.8516 208.719 45.2344C207.711 46.3594 206.633 47.4141 205.484 48.3984C204.359 49.3594 203.164 50.2031 201.898 50.9297C200.656 51.6328 199.367 52.1836 198.031 52.582C196.695 53.0039 195.312 53.2148 193.883 53.2148C192.758 53.2148 191.668 53.0391 190.613 52.6875C189.559 52.3594 188.621 51.8789 187.801 51.2461C187.004 50.6133 186.359 49.8516 185.867 48.9609C185.398 48.0469 185.164 47.0273 185.164 45.9023C185.164 44.1445 185.539 42.5977 186.289 41.2617C187.062 39.9258 188.07 38.7656 189.312 37.7812C190.555 36.7734 191.961 35.9414 193.531 35.2852C195.125 34.6055 196.742 34.0664 198.383 33.668C200.023 33.2461 201.617 32.9531 203.164 32.7891C204.711 32.6016 206.082 32.5078 207.277 32.5078H208.121C208.121 31.0781 207.863 29.6836 207.348 28.3242C206.855 26.9648 206.152 25.7578 205.238 24.7031C204.348 23.6484 203.281 22.8047 202.039 22.1719C200.797 21.5156 199.426 21.1875 197.926 21.1875C196.824 21.1875 195.746 21.5039 194.691 22.1367C193.637 22.7461 192.699 23.5312 191.879 24.4922C191.059 25.4531 190.391 26.5312 189.875 27.7266C189.383 28.9219 189.137 30.082 189.137 31.207C189.137 31.6758 188.938 32.0742 188.539 32.4023C188.164 32.707 187.742 32.8594 187.273 32.8594C186.758 32.8594 186.312 32.6719 185.938 32.2969C185.562 31.8984 185.375 31.4648 185.375 30.9961C185.375 29.8711 185.574 28.6992 185.973 27.4805C186.371 26.2383 186.945 25.0312 187.695 23.8594C188.469 22.6641 189.395 21.5391 190.473 20.4844C191.574 19.4297 192.816 18.5039 194.199 17.707C195.605 16.8867 197.141 16.2422 198.805 15.7734C200.469 15.3047 202.238 15.0703 204.113 15.0703C206.738 15.0703 208.977 15.4805 210.828 16.3008C212.703 17.1211 214.262 18.2344 215.504 19.6406C216.77 21.0469 217.766 22.6758 218.492 24.5273C219.219 26.3789 219.77 28.3359 220.145 30.3984C220.52 32.4609 220.754 34.5586 220.848 36.6914C220.965 38.8242 221.023 40.8633 221.023 42.8086C221.023 43.793 221.012 44.6367 220.988 45.3398C220.965 46.043 220.953 46.6289 220.953 47.0977C221.305 47.0977 221.656 47.0859 222.008 47.0625C222.383 47.0391 222.746 47.0273 223.098 47.0273C223.496 47.0273 223.906 47.0391 224.328 47.0625C224.773 47.0859 225.207 47.0977 225.629 47.0977C226.145 47.1445 226.555 47.3438 226.859 47.6953C227.188 48.0469 227.352 48.4805 227.352 48.9961C227.352 49.4883 227.176 49.9219 226.824 50.2969C226.496 50.6719 226.074 50.8594 225.559 50.8594ZM262.156 51.4219C260.75 51.4219 259.449 51.1992 258.254 50.7539C257.082 50.2852 255.992 49.6758 254.984 48.9258C254 48.1523 253.098 47.25 252.277 46.2188C251.457 45.1875 250.719 44.0977 250.062 42.9492C249.43 41.8008 248.867 40.6289 248.375 39.4336C247.906 38.2148 247.508 37.0312 247.18 35.8828C246.852 35.9531 246.535 36.0117 246.23 36.0586C245.949 36.082 245.668 36.1172 245.387 36.1641V47.625C245.996 47.6953 246.582 47.7656 247.145 47.8359C247.73 47.9062 248.293 47.9766 248.832 48.0469C249.277 48.1172 249.641 48.3281 249.922 48.6797C250.203 49.0312 250.344 49.418 250.344 49.8398C250.344 50.4258 250.145 50.8828 249.746 51.2109C249.348 51.5391 248.949 51.7031 248.551 51.7031H248.27C246.793 51.4922 245.234 51.293 243.594 51.1055C241.977 50.9414 240.219 50.8594 238.32 50.8594C236.938 50.8594 235.508 50.918 234.031 51.0352C232.555 51.1523 231.008 51.375 229.391 51.7031H229.039C228.5 51.7031 228.055 51.5039 227.703 51.1055C227.352 50.7305 227.176 50.3086 227.176 49.8398C227.176 49.418 227.316 49.043 227.598 48.7148C227.879 48.3867 228.242 48.1641 228.688 48.0469C230.094 47.7656 231.512 47.5547 232.941 47.4141V4.76953C231.465 4.69922 230.223 4.61719 229.215 4.52344C228.207 4.40625 227.645 4.34766 227.527 4.34766C227.059 4.27734 226.672 4.06641 226.367 3.71484C226.086 3.36328 225.945 2.95312 225.945 2.48438C225.945 1.89844 226.156 1.45313 226.578 1.14844C227 0.820313 227.41 0.65625 227.809 0.65625H228.02C228.043 0.65625 228.312 0.691406 228.828 0.761719C229.344 0.808594 230.012 0.878906 230.832 0.972656C231.676 1.04297 232.625 1.11328 233.68 1.18359C234.734 1.23047 235.824 1.25391 236.949 1.25391C238.074 1.25391 239.176 1.21875 240.254 1.14844C241.332 1.05469 242.316 0.890625 243.207 0.65625H243.594C244.133 0.65625 244.578 0.84375 244.93 1.21875C245.281 1.59375 245.457 2.01563 245.457 2.48438V32.5078C249.16 31.7812 252.336 30.457 254.984 28.5352C257.656 26.5898 259.812 23.8359 261.453 20.2734H260.645C259.332 20.2734 258.266 20.2383 257.445 20.168C256.625 20.0742 256.156 20.0273 256.039 20.0273C255.57 19.957 255.184 19.7461 254.879 19.3945C254.598 19.043 254.457 18.6328 254.457 18.1641C254.457 17.5781 254.668 17.1328 255.09 16.8281C255.512 16.5234 255.922 16.3711 256.32 16.3711H256.531C256.578 16.3711 256.988 16.4062 257.762 16.4766C258.535 16.5469 259.496 16.582 260.645 16.582C261.301 16.582 262.004 16.5586 262.754 16.5117C263.504 16.4648 264.266 16.3945 265.039 16.3008C265.812 16.1836 266.562 16.0312 267.289 15.8438C268.039 15.6328 268.754 15.375 269.434 15.0703C269.645 14.9297 269.879 14.8594 270.137 14.8594C270.676 14.8594 271.121 15.0586 271.473 15.457C271.848 15.832 272.035 16.2539 272.035 16.7227C272.035 17.0977 271.941 17.4375 271.754 17.7422C271.566 18.0234 271.297 18.2344 270.945 18.375C270.125 18.7734 269.258 19.1016 268.344 19.3594C267.43 19.6172 266.492 19.8164 265.531 19.957C264.664 22.3477 263.609 24.3984 262.367 26.1094C261.148 27.8203 259.859 29.25 258.5 30.3984C259.156 32.3203 259.848 34.1367 260.574 35.8477C261.301 37.5352 262.027 39.0117 262.754 40.2773C263.504 41.543 264.23 42.5508 264.934 43.3008C265.66 44.0273 266.34 44.3906 266.973 44.3906C267.512 44.3906 267.922 44.1914 268.203 43.793C268.484 43.3711 268.672 42.8906 268.766 42.3516C268.883 41.8125 268.941 41.2617 268.941 40.6992C268.941 40.1367 268.941 39.7031 268.941 39.3984C268.941 38.6719 268.906 37.9688 268.836 37.2891C268.789 36.6094 268.73 36.0117 268.66 35.4961C268.59 34.9805 268.52 34.5703 268.449 34.2656C268.402 33.9609 268.367 33.8086 268.344 33.8086V33.3516C268.344 32.8594 268.52 32.4258 268.871 32.0508C269.246 31.6758 269.668 31.4883 270.137 31.4883C270.582 31.4883 270.969 31.6172 271.297 31.875C271.648 32.1328 271.871 32.4844 271.965 32.9297C271.988 33 272.035 33.2227 272.105 33.5977C272.176 33.9492 272.246 34.4062 272.316 34.9688C272.41 35.5312 272.492 36.1875 272.562 36.9375C272.633 37.6641 272.668 38.4375 272.668 39.2578C272.668 40.9688 272.469 42.5742 272.07 44.0742C271.672 45.5508 271.039 46.8398 270.172 47.9414C269.328 49.0195 268.238 49.875 266.902 50.5078C265.59 51.1172 264.008 51.4219 262.156 51.4219ZM309.934 32.4375V31.8398C309.934 30.082 309.746 28.4531 309.371 26.9531C308.996 25.4531 308.398 24.1289 307.578 22.9805C306.781 21.8086 305.75 20.8477 304.484 20.0977C303.219 19.3477 301.695 18.8438 299.914 18.5859C298.672 18.7266 297.594 19.0664 296.68 19.6055C295.766 20.1445 294.98 20.8125 294.324 21.6094C293.691 22.3828 293.164 23.2617 292.742 24.2461C292.32 25.2305 291.98 26.25 291.723 27.3047C291.488 28.3359 291.312 29.3789 291.195 30.4336C291.078 31.4648 291.008 32.4375 290.984 33.3516C291.359 33.4688 291.828 33.5977 292.391 33.7383C292.977 33.8789 293.633 34.0195 294.359 34.1602C295.086 34.2773 295.871 34.3828 296.715 34.4766C297.582 34.5469 298.484 34.582 299.422 34.582C301.414 34.582 303.277 34.3945 305.012 34.0195C306.77 33.6445 308.41 33.1172 309.934 32.4375ZM313.52 33.8086C313.449 34.418 313.121 34.9453 312.535 35.3906C311.949 35.8359 311.211 36.2344 310.32 36.5859C309.43 36.9141 308.445 37.1953 307.367 37.4297C306.312 37.6406 305.27 37.8164 304.238 37.957C303.207 38.0977 302.258 38.2031 301.391 38.2734C300.523 38.3203 299.844 38.3438 299.352 38.3438C297.641 38.3438 296.059 38.2266 294.605 37.9922C293.176 37.7578 291.992 37.5117 291.055 37.2539C291.195 38.707 291.465 40.1367 291.863 41.543C292.262 42.9492 292.836 44.2148 293.586 45.3398C294.336 46.4414 295.273 47.3438 296.398 48.0469C297.523 48.7266 298.883 49.0664 300.477 49.0664C301.062 49.0664 301.73 48.9961 302.48 48.8555C303.23 48.6914 303.969 48.4688 304.695 48.1875C305.422 47.8828 306.09 47.5312 306.699 47.1328C307.309 46.7109 307.789 46.2422 308.141 45.7266C308.539 45.2578 309.02 45.0234 309.582 45.0234C310.074 45.0234 310.508 45.2227 310.883 45.6211C311.258 45.9961 311.445 46.418 311.445 46.8867C311.445 47.3789 311.293 47.7656 310.988 48.0469C310.426 48.9141 309.641 49.6523 308.633 50.2617C307.625 50.8711 306.535 51.3633 305.363 51.7383C304.191 52.1367 303.008 52.418 301.812 52.582C300.617 52.7695 299.527 52.8633 298.543 52.8633C295.73 52.8633 293.117 52.3594 290.703 51.3516C288.289 50.3672 286.191 49.0078 284.41 47.2734C282.629 45.5391 281.223 43.5 280.191 41.1562C279.184 38.8125 278.68 36.2812 278.68 33.5625C278.68 30.5859 279.125 27.9375 280.016 25.6172C280.906 23.2734 282.172 21.3047 283.812 19.7109C285.453 18.0938 287.445 16.875 289.789 16.0547C292.133 15.2109 294.77 14.7891 297.699 14.7891C300.465 14.9062 302.844 15.375 304.836 16.1953C306.852 17.0156 308.504 18.1523 309.793 19.6055C311.082 21.0586 312.031 22.8164 312.641 24.8789C313.273 26.918 313.59 29.2148 313.59 31.7695C313.59 32.3555 313.578 32.8242 313.555 33.1758C313.531 33.5039 313.52 33.7148 313.52 33.8086Z" fill="white"/>
<path d="M54.0742 59.9531C54.0742 60.3516 53.957 60.7266 53.7227 61.0781C53.5117 61.4062 53.207 61.6289 52.8086 61.7461C51.9883 61.957 51.1797 62.1562 50.3828 62.3438C49.5859 62.5078 48.7773 62.6484 47.957 62.7656C48.5664 66.4688 48.9883 70.0664 49.2227 73.5586C49.4805 77.0508 49.6094 80.5078 49.6094 83.9297C49.6094 88.5703 49.4219 93.0469 49.0469 97.3594C48.6953 101.672 48.2617 105.902 47.7461 110.051C47.6055 110.566 47.3594 110.953 47.0078 111.211C46.6797 111.492 46.3047 111.633 45.8828 111.633C45.0859 111.633 44.5352 111.258 44.2305 110.508C43.5742 108.914 42.6719 106.957 41.5234 104.637C40.3984 102.293 39.1211 99.7852 37.6914 97.1133C36.2852 94.418 34.7852 91.6289 33.1914 88.7461C31.6211 85.8633 30.0742 83.0742 28.5508 80.3789C27.0508 77.6836 25.6328 75.1641 24.2969 72.8203C22.9609 70.4531 21.8242 68.4492 20.8867 66.8086L19.832 107.555C20.7227 107.625 21.625 107.695 22.5391 107.766C23.4766 107.836 24.4141 107.906 25.3516 107.977C25.8203 108.047 26.207 108.258 26.5117 108.609C26.8398 108.961 27.0039 109.371 27.0039 109.84C27.0039 110.379 26.8047 110.812 26.4062 111.141C26.0078 111.469 25.5859 111.633 25.1406 111.633H25C23.125 111.445 21.25 111.305 19.375 111.211C17.5234 111.117 15.6602 111.07 13.7852 111.07C11.9336 111.07 10.0938 111.117 8.26562 111.211C6.46094 111.305 4.64453 111.445 2.81641 111.633H2.67578C2.16016 111.633 1.71484 111.445 1.33984 111.07C0.988281 110.719 0.8125 110.309 0.8125 109.84C0.8125 109.371 0.964844 108.961 1.26953 108.609C1.59766 108.258 1.99609 108.047 2.46484 107.977C3.33203 107.906 4.19922 107.836 5.06641 107.766C5.95703 107.695 6.83594 107.625 7.70312 107.555L8.51172 63.1875C6.49609 63.0469 4.45703 62.8359 2.39453 62.5547C1.92578 62.4844 1.53906 62.2734 1.23438 61.9219C0.953125 61.5469 0.8125 61.125 0.8125 60.6562C0.8125 60.0938 1.02344 59.6602 1.44531 59.3555C1.86719 59.0273 2.27734 58.8633 2.67578 58.8633H2.88672C5.39453 59.1914 7.84375 59.4492 10.2344 59.6367C12.6484 59.8008 15.0508 59.8828 17.4414 59.8828H20.043C20.0664 59.8828 20.1367 59.8945 20.2539 59.918C20.3711 59.918 20.5 59.9414 20.6406 59.9883C20.8047 60.0352 20.9688 60.1172 21.1328 60.2344C21.3203 60.3516 21.4844 60.5156 21.625 60.7266C21.7188 60.8906 22.0234 61.418 22.5391 62.3086C23.0547 63.1992 23.7227 64.3594 24.543 65.7891C25.3633 67.2188 26.3008 68.8711 27.3555 70.7461C28.4336 72.6211 29.5703 74.625 30.7656 76.7578C31.9844 78.8906 33.2266 81.1055 34.4922 83.4023C35.7578 85.6992 37 87.9961 38.2188 90.293C39.4609 92.5664 40.6445 94.793 41.7695 96.9727C42.918 99.1289 43.9492 101.145 44.8633 103.02C45.168 99.9492 45.4258 96.832 45.6367 93.668C45.8477 90.5039 45.9531 87.2578 45.9531 83.9297C45.9531 80.6016 45.8242 77.2031 45.5664 73.7344C45.3086 70.2656 44.8867 66.7031 44.3008 63.0469C43.9961 63.0938 43.7031 63.1172 43.4219 63.1172C43.1406 63.1172 42.8359 63.1172 42.5078 63.1172C41.125 63.1172 39.6836 63.0469 38.1836 62.9062C37.7148 62.8594 37.3164 62.6602 36.9883 62.3086C36.6836 61.9336 36.5312 61.5117 36.5312 61.043C36.5312 60.5273 36.7188 60.0938 37.0938 59.7422C37.4922 59.3906 37.9258 59.2148 38.3945 59.2148H38.6055C39.2617 59.3086 39.9062 59.3789 40.5391 59.4258C41.1953 59.4492 41.8516 59.4609 42.5078 59.4609C44.125 59.4609 45.707 59.3555 47.2539 59.1445C48.8008 58.9336 50.3125 58.6289 51.7891 58.2305C51.8828 58.1836 52.0469 58.1602 52.2812 58.1602C52.7969 58.1602 53.2188 58.3477 53.5469 58.7227C53.8984 59.0742 54.0742 59.4844 54.0742 59.9531ZM107.688 86.0039C107.688 84.4102 107.477 82.7461 107.055 81.0117C106.633 79.2539 106.035 77.543 105.262 75.8789C104.512 74.1914 103.598 72.5977 102.52 71.0977C101.465 69.5742 100.293 68.25 99.0039 67.125C97.7383 65.9766 96.3789 65.0742 94.9258 64.418C93.4727 63.7383 91.9844 63.3984 90.4609 63.3984C88.3984 63.3984 86.5352 63.7031 84.8711 64.3125C83.207 64.9219 81.7188 65.7539 80.4062 66.8086C79.1172 67.8398 77.9922 69.0703 77.0312 70.5C76.0703 71.9297 75.2734 73.4648 74.6406 75.1055C74.0312 76.7227 73.5742 78.4219 73.2695 80.2031C72.9648 81.9609 72.8125 83.707 72.8125 85.4414C72.8125 87.3398 72.918 89.2383 73.1289 91.1367C73.3633 93.0352 73.7383 94.8633 74.2539 96.6211C74.793 98.3555 75.4727 99.9844 76.293 101.508C77.1367 103.008 78.168 104.32 79.3867 105.445C80.6055 106.547 82.0234 107.414 83.6406 108.047C85.2812 108.68 87.1445 108.996 89.2305 108.996C90.8945 108.996 92.5 108.668 94.0469 108.012C95.6172 107.355 97.082 106.477 98.4414 105.375C99.8242 104.25 101.078 102.938 102.203 101.438C103.352 99.9141 104.324 98.3086 105.121 96.6211C105.941 94.9102 106.574 93.1523 107.02 91.3477C107.465 89.5195 107.688 87.7383 107.688 86.0039ZM111.344 86.0039C111.344 88.4648 111.027 90.8438 110.395 93.1406C109.785 95.4141 108.918 97.5586 107.793 99.5742C106.691 101.59 105.355 103.43 103.785 105.094C102.215 106.758 100.48 108.188 98.582 109.383C96.707 110.578 94.6914 111.504 92.5352 112.16C90.3789 112.816 88.1523 113.145 85.8555 113.145C83.5352 113.145 81.2852 112.816 79.1055 112.16C76.9492 111.527 74.9336 110.625 73.0586 109.453C71.1836 108.258 69.4609 106.84 67.8906 105.199C66.3438 103.535 65.0195 101.707 63.918 99.7148C62.8164 97.6992 61.9609 95.5312 61.3516 93.2109C60.7422 90.8906 60.4375 88.4883 60.4375 86.0039C60.4375 83.5195 60.7422 81.1172 61.3516 78.7969C61.9609 76.4766 62.8164 74.3203 63.918 72.3281C65.0195 70.3125 66.3438 68.4844 67.8906 66.8438C69.4609 65.1797 71.1836 63.7617 73.0586 62.5898C74.9336 61.3945 76.9492 60.4805 79.1055 59.8477C81.2852 59.1914 83.5352 58.8633 85.8555 58.8633C88.3164 58.8633 90.6484 59.2148 92.8516 59.918C95.0781 60.6211 97.1289 61.5938 99.0039 62.8359C100.902 64.0781 102.613 65.5547 104.137 67.2656C105.66 68.9766 106.949 70.8398 108.004 72.8555C109.082 74.8711 109.902 76.9922 110.465 79.2188C111.051 81.4453 111.344 83.707 111.344 86.0039ZM201.098 110.051C201.027 110.52 200.816 110.895 200.465 111.176C200.113 111.48 199.703 111.633 199.234 111.633H199.164C192.859 111.211 186.707 111 180.707 111C174.613 111 168.742 111.211 163.094 111.633H162.918C162.379 111.586 161.934 111.398 161.582 111.07C161.23 110.742 161.055 110.309 161.055 109.77C161.055 109.301 161.219 108.902 161.547 108.574C161.875 108.223 162.285 108.023 162.777 107.977C163.527 107.906 164.277 107.859 165.027 107.836C165.801 107.789 166.562 107.742 167.312 107.695V64.8398C166.562 64.793 165.812 64.7695 165.062 64.7695C164.336 64.7695 163.598 64.7695 162.848 64.7695C162.355 64.7227 161.934 64.5352 161.582 64.207C161.23 63.8555 161.055 63.4219 161.055 62.9062C161.055 62.3906 161.242 61.957 161.617 61.6055C161.992 61.2305 162.426 61.043 162.918 61.043C163.809 61.0898 164.664 61.1133 165.484 61.1133C166.328 61.1133 167.16 61.1133 167.98 61.1133C172.973 61.1133 177.918 60.9492 182.816 60.6211C187.715 60.293 192.602 59.8008 197.477 59.1445H197.793C198.262 59.1445 198.66 59.3086 198.988 59.6367C199.316 59.9414 199.516 60.3047 199.586 60.7266L201.098 72.6094V72.8555C201.098 73.3945 200.898 73.8281 200.5 74.1562C200.125 74.4844 199.703 74.6484 199.234 74.6484C198.789 74.6484 198.391 74.5078 198.039 74.2266C197.711 73.9219 197.5 73.5352 197.406 73.0664L196.141 63.0469C193.422 63.4219 190.691 63.7266 187.949 63.9609C185.23 64.1719 182.488 64.3477 179.723 64.4883V87.6562C180.285 87.6328 181.035 87.5977 181.973 87.5508C182.91 87.5039 183.918 87.4336 184.996 87.3398C186.098 87.2461 187.211 87.1406 188.336 87.0234C189.484 86.8828 190.551 86.7188 191.535 86.5312H191.887C192.379 86.5312 192.812 86.7188 193.188 87.0938C193.562 87.4453 193.75 87.8555 193.75 88.3242C193.75 88.793 193.609 89.1914 193.328 89.5195C193.047 89.8477 192.684 90.0703 192.238 90.1875C191.16 90.3984 190 90.5742 188.758 90.7148C187.539 90.8555 186.344 90.9727 185.172 91.0664C184.023 91.1367 182.969 91.1953 182.008 91.2422C181.047 91.2891 180.285 91.3242 179.723 91.3477V107.344H180.707C183.496 107.344 186.297 107.379 189.109 107.449C191.945 107.52 194.793 107.648 197.652 107.836L198.918 98.4141C199.012 97.9453 199.223 97.5703 199.551 97.2891C199.902 96.9844 200.301 96.832 200.746 96.832C201.309 96.832 201.754 97.0312 202.082 97.4297C202.434 97.8281 202.609 98.2266 202.609 98.625V98.9062L201.098 110.051ZM252.883 97.3242C252.883 99.8789 252.297 102.164 251.125 104.18C249.953 106.172 248.441 107.859 246.59 109.242C244.738 110.602 242.676 111.645 240.402 112.371C238.152 113.098 235.926 113.461 233.723 113.461C229.598 113.461 225.789 112.711 222.297 111.211C218.805 109.711 215.699 107.508 212.98 104.602V105.445C212.98 106.195 212.992 106.934 213.016 107.66C213.039 108.387 213.074 109.113 213.121 109.84V109.98C213.121 110.449 212.957 110.859 212.629 111.211C212.324 111.562 211.914 111.762 211.398 111.809C210.859 111.809 210.414 111.645 210.062 111.316C209.711 110.988 209.512 110.566 209.465 110.051C209.418 109.301 209.383 108.551 209.359 107.801C209.336 107.027 209.324 106.266 209.324 105.516C209.324 103.125 209.441 100.922 209.676 98.9062C209.91 96.8672 210.227 94.8516 210.625 92.8594C210.742 92.4141 210.953 92.0508 211.258 91.7695C211.586 91.4883 211.973 91.3477 212.418 91.3477C212.957 91.3477 213.402 91.5586 213.754 91.9805C214.105 92.3789 214.281 92.7891 214.281 93.2109C214.281 93.2578 214.281 93.3164 214.281 93.3867C214.281 93.4336 214.258 93.4922 214.211 93.5625C214.094 94.1016 213.988 94.6055 213.895 95.0742C213.824 95.5195 213.742 95.9648 213.648 96.4102C213.578 96.832 213.508 97.2773 213.438 97.7461C213.391 98.1914 213.332 98.6953 213.262 99.2578C215.887 102.633 218.887 105.234 222.262 107.062C225.637 108.867 229.434 109.77 233.652 109.77C234.848 109.77 236.125 109.664 237.484 109.453C238.867 109.242 240.133 108.867 241.281 108.328C242.453 107.766 243.414 107.027 244.164 106.113C244.938 105.176 245.324 103.992 245.324 102.562C245.324 101.555 245.055 100.641 244.516 99.8203C243.977 98.9766 243.273 98.2266 242.406 97.5703C241.539 96.9141 240.555 96.3398 239.453 95.8477C238.375 95.332 237.285 94.8867 236.184 94.5117C235.082 94.1367 234.027 93.832 233.02 93.5977C232.035 93.3398 231.191 93.1406 230.488 93C228.824 92.6484 227.172 92.2617 225.531 91.8398C223.891 91.3945 222.332 90.8672 220.855 90.2578C219.379 89.6484 218.008 88.9336 216.742 88.1133C215.477 87.293 214.375 86.332 213.438 85.2305C212.523 84.1055 211.797 82.8047 211.258 81.3281C210.742 79.8516 210.484 78.1523 210.484 76.2305C210.484 74.3555 210.73 72.6328 211.223 71.0625C211.738 69.4688 212.441 68.0391 213.332 66.7734C214.223 65.5078 215.266 64.4062 216.461 63.4688C217.68 62.5078 219.004 61.7109 220.434 61.0781C221.863 60.4219 223.363 59.9414 224.934 59.6367C226.527 59.3086 228.133 59.1445 229.75 59.1445C230.734 59.1445 231.777 59.2266 232.879 59.3906C234.004 59.5312 235.117 59.7422 236.219 60.0234C237.32 60.2812 238.398 60.5977 239.453 60.9727C240.531 61.3242 241.527 61.7227 242.441 62.168C243.355 62.5898 244.164 63.0469 244.867 63.5391C245.57 64.0078 246.133 64.4883 246.555 64.9805C246.883 64.0898 247.234 63.2109 247.609 62.3438C248.008 61.4531 248.418 60.5625 248.84 59.6719C249.027 59.3438 249.262 59.0977 249.543 58.9336C249.848 58.7461 250.164 58.6523 250.492 58.6523C251.031 58.6523 251.477 58.8516 251.828 59.25C252.18 59.625 252.355 60.0469 252.355 60.5156C252.355 60.7734 252.285 61.043 252.145 61.3242C250.926 63.8555 249.918 66.3984 249.121 68.9531C248.348 71.4844 247.797 74.0508 247.469 76.6523C247.422 77.1211 247.223 77.5078 246.871 77.8125C246.543 78.0938 246.145 78.2344 245.676 78.2344C245.137 78.2344 244.691 78.0352 244.34 77.6367C243.988 77.2383 243.812 76.8398 243.812 76.4414V76.2305C244.094 73.7461 244.598 71.2969 245.324 68.8828C245.184 68.4609 244.82 68.0156 244.234 67.5469C243.648 67.0547 242.922 66.5859 242.055 66.1406C241.211 65.6953 240.25 65.2734 239.172 64.875C238.094 64.4531 236.992 64.0898 235.867 63.7852C234.742 63.4805 233.617 63.2344 232.492 63.0469C231.367 62.8594 230.336 62.7656 229.398 62.7656C227.969 62.7656 226.598 62.918 225.285 63.2227C223.973 63.5273 222.801 64.0195 221.77 64.6992C220.762 65.3789 219.941 66.2578 219.309 67.3359C218.676 68.3906 218.348 69.668 218.324 71.168C218.418 72.4805 218.77 73.6172 219.379 74.5781C220.012 75.5156 220.785 76.3359 221.699 77.0391C222.637 77.7422 223.691 78.3398 224.863 78.832C226.035 79.3008 227.219 79.7109 228.414 80.0625C229.633 80.3906 230.816 80.6836 231.965 80.9414C233.113 81.1758 234.156 81.3984 235.094 81.6094C237.461 82.1719 239.723 82.8047 241.879 83.5078C244.035 84.2109 245.922 85.1367 247.539 86.2852C249.18 87.4336 250.48 88.8984 251.441 90.6797C252.402 92.4375 252.883 94.6523 252.883 97.3242Z" fill="white"/>
</svg>
